<mxfile host="app.diagrams.net" modified="2020-09-12T03:55:00.572Z" agent="5.0 (Macintosh; Intel Mac OS X 10_15_6) AppleWebKit/537.36 (KHTML, like Gecko) Chrome/85.0.4183.83 Safari/537.36" etag="7dTOPA8zzIAkkyLwiJgE" version="13.6.10" type="github">
  <diagram id="p5Yt5_LBMko7Ymoul8F5" name="Page-1">
    <mxGraphModel dx="918" dy="613" grid="1" gridSize="10" guides="1" tooltips="1" connect="1" arrows="1" fold="1" page="1" pageScale="1" pageWidth="850" pageHeight="1100" math="0" shadow="0">
      <root>
        <mxCell id="0" />
        <mxCell id="1" parent="0" />
        <mxCell id="dfPUZloqLpA2gvZXS7nK-61" value="" style="whiteSpace=wrap;html=1;aspect=fixed;dashed=1;strokeWidth=2;" vertex="1" parent="1">
          <mxGeometry x="617" y="576" width="70" height="70" as="geometry" />
        </mxCell>
        <mxCell id="dfPUZloqLpA2gvZXS7nK-56" value="&lt;b&gt;&lt;font style=&quot;font-size: 12px&quot;&gt;Disconnect User&lt;/font&gt;&lt;/b&gt;" style="edgeStyle=none;rounded=0;orthogonalLoop=1;jettySize=auto;html=1;exitX=0.5;exitY=0;exitDx=0;exitDy=0;startArrow=none;startFill=0;strokeWidth=2;fillColor=#ffffff;" edge="1" parent="1" source="dfPUZloqLpA2gvZXS7nK-51" target="dfPUZloqLpA2gvZXS7nK-6">
          <mxGeometry x="-0.2389" y="-39" relative="1" as="geometry">
            <mxPoint as="offset" />
          </mxGeometry>
        </mxCell>
        <mxCell id="dfPUZloqLpA2gvZXS7nK-63" style="edgeStyle=orthogonalEdgeStyle;rounded=0;orthogonalLoop=1;jettySize=auto;html=1;exitX=0.5;exitY=1;exitDx=0;exitDy=0;entryX=0.5;entryY=1;entryDx=0;entryDy=0;startArrow=none;startFill=0;endArrow=classic;endFill=1;strokeWidth=2;fillColor=#ffffff;" edge="1" parent="1" source="dfPUZloqLpA2gvZXS7nK-51" target="dfPUZloqLpA2gvZXS7nK-61">
          <mxGeometry relative="1" as="geometry" />
        </mxCell>
        <mxCell id="dfPUZloqLpA2gvZXS7nK-51" value="" style="rounded=0;whiteSpace=wrap;html=1;dashed=1;strokeWidth=2;" vertex="1" parent="1">
          <mxGeometry x="769" y="550" width="121" height="119" as="geometry" />
        </mxCell>
        <mxCell id="dfPUZloqLpA2gvZXS7nK-54" value="" style="edgeStyle=none;rounded=0;orthogonalLoop=1;jettySize=auto;html=1;startArrow=none;startFill=0;strokeWidth=2;fillColor=#ffffff;" edge="1" parent="1" source="dfPUZloqLpA2gvZXS7nK-49" target="dfPUZloqLpA2gvZXS7nK-52">
          <mxGeometry relative="1" as="geometry" />
        </mxCell>
        <mxCell id="dfPUZloqLpA2gvZXS7nK-49" value="" style="rounded=0;whiteSpace=wrap;html=1;dashed=1;strokeWidth=2;" vertex="1" parent="1">
          <mxGeometry x="804" y="121" width="121" height="119" as="geometry" />
        </mxCell>
        <mxCell id="dfPUZloqLpA2gvZXS7nK-1" value="" style="outlineConnect=0;fontColor=#232F3E;gradientColor=#F78E04;gradientDirection=north;fillColor=#D05C17;strokeColor=#ffffff;dashed=0;verticalLabelPosition=bottom;verticalAlign=top;align=center;html=1;fontSize=12;fontStyle=0;aspect=fixed;shape=mxgraph.aws4.resourceIcon;resIcon=mxgraph.aws4.ec2;" vertex="1" parent="1">
          <mxGeometry x="450" y="356" width="78" height="78" as="geometry" />
        </mxCell>
        <mxCell id="dfPUZloqLpA2gvZXS7nK-2" value="" style="outlineConnect=0;fontColor=#232F3E;gradientColor=#F78E04;gradientDirection=north;fillColor=#D05C17;strokeColor=#ffffff;dashed=0;verticalLabelPosition=bottom;verticalAlign=top;align=center;html=1;fontSize=12;fontStyle=0;aspect=fixed;shape=mxgraph.aws4.resourceIcon;resIcon=mxgraph.aws4.lambda;" vertex="1" parent="1">
          <mxGeometry x="813" y="130" width="48" height="48" as="geometry" />
        </mxCell>
        <mxCell id="dfPUZloqLpA2gvZXS7nK-34" value="" style="edgeStyle=none;rounded=0;orthogonalLoop=1;jettySize=auto;html=1;fillColor=#ffffff;strokeWidth=2;startArrow=classic;startFill=1;" edge="1" parent="1" source="dfPUZloqLpA2gvZXS7nK-3" target="dfPUZloqLpA2gvZXS7nK-1">
          <mxGeometry relative="1" as="geometry" />
        </mxCell>
        <mxCell id="dfPUZloqLpA2gvZXS7nK-35" style="edgeStyle=none;rounded=0;orthogonalLoop=1;jettySize=auto;html=1;dashed=1;fillColor=#ffffff;strokeWidth=2;startArrow=classic;startFill=1;" edge="1" parent="1" source="dfPUZloqLpA2gvZXS7nK-3" target="dfPUZloqLpA2gvZXS7nK-5">
          <mxGeometry relative="1" as="geometry" />
        </mxCell>
        <mxCell id="dfPUZloqLpA2gvZXS7nK-36" style="edgeStyle=none;rounded=0;orthogonalLoop=1;jettySize=auto;html=1;dashed=1;fillColor=#ffffff;strokeWidth=2;startArrow=classic;startFill=1;" edge="1" parent="1" source="dfPUZloqLpA2gvZXS7nK-3" target="dfPUZloqLpA2gvZXS7nK-4">
          <mxGeometry relative="1" as="geometry" />
        </mxCell>
        <mxCell id="dfPUZloqLpA2gvZXS7nK-3" value="" style="outlineConnect=0;fontColor=#232F3E;gradientColor=#F78E04;gradientDirection=north;fillColor=#D05C17;strokeColor=#ffffff;dashed=0;verticalLabelPosition=bottom;verticalAlign=top;align=center;html=1;fontSize=12;fontStyle=0;aspect=fixed;shape=mxgraph.aws4.resourceIcon;resIcon=mxgraph.aws4.elastic_load_balancing;" vertex="1" parent="1">
          <mxGeometry x="323" y="356" width="78" height="78" as="geometry" />
        </mxCell>
        <mxCell id="dfPUZloqLpA2gvZXS7nK-4" value="" style="outlineConnect=0;fontColor=#232F3E;gradientColor=#F78E04;gradientDirection=north;fillColor=#D05C17;strokeColor=#ffffff;dashed=0;verticalLabelPosition=bottom;verticalAlign=top;align=center;html=1;fontSize=12;fontStyle=0;aspect=fixed;shape=mxgraph.aws4.resourceIcon;resIcon=mxgraph.aws4.ec2;" vertex="1" parent="1">
          <mxGeometry x="450" y="446" width="78" height="78" as="geometry" />
        </mxCell>
        <mxCell id="dfPUZloqLpA2gvZXS7nK-5" value="" style="outlineConnect=0;fontColor=#232F3E;gradientColor=#F78E04;gradientDirection=north;fillColor=#D05C17;strokeColor=#ffffff;dashed=0;verticalLabelPosition=bottom;verticalAlign=top;align=center;html=1;fontSize=12;fontStyle=0;aspect=fixed;shape=mxgraph.aws4.resourceIcon;resIcon=mxgraph.aws4.ec2;" vertex="1" parent="1">
          <mxGeometry x="450" y="266" width="78" height="78" as="geometry" />
        </mxCell>
        <mxCell id="dfPUZloqLpA2gvZXS7nK-6" value="" style="outlineConnect=0;fontColor=#232F3E;gradientColor=#4D72F3;gradientDirection=north;fillColor=#3334B9;strokeColor=#ffffff;dashed=0;verticalLabelPosition=bottom;verticalAlign=top;align=center;html=1;fontSize=12;fontStyle=0;aspect=fixed;shape=mxgraph.aws4.resourceIcon;resIcon=mxgraph.aws4.dynamodb;" vertex="1" parent="1">
          <mxGeometry x="696" y="330" width="130" height="130" as="geometry" />
        </mxCell>
        <mxCell id="dfPUZloqLpA2gvZXS7nK-53" value="&lt;b&gt;&lt;font style=&quot;font-size: 12px&quot;&gt;Queue Song&lt;/font&gt;&lt;/b&gt;" style="edgeStyle=none;rounded=0;orthogonalLoop=1;jettySize=auto;html=1;entryX=0;entryY=0.5;entryDx=0;entryDy=0;startArrow=none;startFill=0;strokeWidth=2;fillColor=#ffffff;" edge="1" parent="1" source="dfPUZloqLpA2gvZXS7nK-8" target="dfPUZloqLpA2gvZXS7nK-49">
          <mxGeometry x="-0.0853" y="-9" relative="1" as="geometry">
            <mxPoint as="offset" />
          </mxGeometry>
        </mxCell>
        <mxCell id="dfPUZloqLpA2gvZXS7nK-8" value="" style="outlineConnect=0;fontColor=#232F3E;gradientColor=#F34482;gradientDirection=north;fillColor=#BC1356;strokeColor=#ffffff;dashed=0;verticalLabelPosition=bottom;verticalAlign=top;align=center;html=1;fontSize=12;fontStyle=0;aspect=fixed;shape=mxgraph.aws4.resourceIcon;resIcon=mxgraph.aws4.sqs;" vertex="1" parent="1">
          <mxGeometry x="618" y="147" width="68" height="68" as="geometry" />
        </mxCell>
        <mxCell id="dfPUZloqLpA2gvZXS7nK-9" value="" style="outlineConnect=0;fontColor=#232F3E;gradientColor=#F78E04;gradientDirection=north;fillColor=#D05C17;strokeColor=#ffffff;dashed=0;verticalLabelPosition=bottom;verticalAlign=top;align=center;html=1;fontSize=12;fontStyle=0;aspect=fixed;shape=mxgraph.aws4.resourceIcon;resIcon=mxgraph.aws4.lambda;" vertex="1" parent="1">
          <mxGeometry x="813" y="180" width="48" height="48" as="geometry" />
        </mxCell>
        <mxCell id="dfPUZloqLpA2gvZXS7nK-10" value="" style="outlineConnect=0;fontColor=#232F3E;gradientColor=#F78E04;gradientDirection=north;fillColor=#D05C17;strokeColor=#ffffff;dashed=0;verticalLabelPosition=bottom;verticalAlign=top;align=center;html=1;fontSize=12;fontStyle=0;aspect=fixed;shape=mxgraph.aws4.resourceIcon;resIcon=mxgraph.aws4.lambda;" vertex="1" parent="1">
          <mxGeometry x="865" y="180" width="48" height="48" as="geometry" />
        </mxCell>
        <mxCell id="dfPUZloqLpA2gvZXS7nK-11" value="" style="outlineConnect=0;fontColor=#232F3E;gradientColor=#F78E04;gradientDirection=north;fillColor=#D05C17;strokeColor=#ffffff;dashed=0;verticalLabelPosition=bottom;verticalAlign=top;align=center;html=1;fontSize=12;fontStyle=0;aspect=fixed;shape=mxgraph.aws4.resourceIcon;resIcon=mxgraph.aws4.lambda;" vertex="1" parent="1">
          <mxGeometry x="865" y="130" width="48" height="48" as="geometry" />
        </mxCell>
        <mxCell id="dfPUZloqLpA2gvZXS7nK-13" value="" style="outlineConnect=0;fontColor=#232F3E;gradientColor=#F78E04;gradientDirection=north;fillColor=#D05C17;strokeColor=#ffffff;dashed=0;verticalLabelPosition=bottom;verticalAlign=top;align=center;html=1;fontSize=12;fontStyle=0;aspect=fixed;shape=mxgraph.aws4.resourceIcon;resIcon=mxgraph.aws4.lambda;" vertex="1" parent="1">
          <mxGeometry x="778" y="560" width="48" height="48" as="geometry" />
        </mxCell>
        <mxCell id="dfPUZloqLpA2gvZXS7nK-14" value="" style="outlineConnect=0;fontColor=#232F3E;gradientColor=#F78E04;gradientDirection=north;fillColor=#D05C17;strokeColor=#ffffff;dashed=0;verticalLabelPosition=bottom;verticalAlign=top;align=center;html=1;fontSize=12;fontStyle=0;aspect=fixed;shape=mxgraph.aws4.resourceIcon;resIcon=mxgraph.aws4.lambda;" vertex="1" parent="1">
          <mxGeometry x="778" y="610" width="48" height="48" as="geometry" />
        </mxCell>
        <mxCell id="dfPUZloqLpA2gvZXS7nK-15" value="" style="outlineConnect=0;fontColor=#232F3E;gradientColor=#F78E04;gradientDirection=north;fillColor=#D05C17;strokeColor=#ffffff;dashed=0;verticalLabelPosition=bottom;verticalAlign=top;align=center;html=1;fontSize=12;fontStyle=0;aspect=fixed;shape=mxgraph.aws4.resourceIcon;resIcon=mxgraph.aws4.lambda;" vertex="1" parent="1">
          <mxGeometry x="830" y="610" width="48" height="48" as="geometry" />
        </mxCell>
        <mxCell id="dfPUZloqLpA2gvZXS7nK-16" value="" style="outlineConnect=0;fontColor=#232F3E;gradientColor=#F78E04;gradientDirection=north;fillColor=#D05C17;strokeColor=#ffffff;dashed=0;verticalLabelPosition=bottom;verticalAlign=top;align=center;html=1;fontSize=12;fontStyle=0;aspect=fixed;shape=mxgraph.aws4.resourceIcon;resIcon=mxgraph.aws4.lambda;" vertex="1" parent="1">
          <mxGeometry x="830" y="560" width="48" height="48" as="geometry" />
        </mxCell>
        <mxCell id="dfPUZloqLpA2gvZXS7nK-55" value="" style="edgeStyle=none;rounded=0;orthogonalLoop=1;jettySize=auto;html=1;startArrow=none;startFill=0;strokeWidth=2;fillColor=#ffffff;entryX=0;entryY=0.5;entryDx=0;entryDy=0;" edge="1" parent="1" source="dfPUZloqLpA2gvZXS7nK-17" target="dfPUZloqLpA2gvZXS7nK-51">
          <mxGeometry relative="1" as="geometry" />
        </mxCell>
        <mxCell id="dfPUZloqLpA2gvZXS7nK-17" value="" style="outlineConnect=0;fontColor=#232F3E;gradientColor=#F34482;gradientDirection=north;fillColor=#BC1356;strokeColor=#ffffff;dashed=0;verticalLabelPosition=bottom;verticalAlign=top;align=center;html=1;fontSize=12;fontStyle=0;aspect=fixed;shape=mxgraph.aws4.resourceIcon;resIcon=mxgraph.aws4.sqs;" vertex="1" parent="1">
          <mxGeometry x="618" y="576" width="68" height="68" as="geometry" />
        </mxCell>
        <mxCell id="dfPUZloqLpA2gvZXS7nK-33" style="edgeStyle=none;rounded=0;orthogonalLoop=1;jettySize=auto;html=1;fillColor=#ffffff;strokeWidth=2;startArrow=classic;startFill=1;" edge="1" parent="1" source="dfPUZloqLpA2gvZXS7nK-18" target="dfPUZloqLpA2gvZXS7nK-3">
          <mxGeometry relative="1" as="geometry" />
        </mxCell>
        <mxCell id="dfPUZloqLpA2gvZXS7nK-18" value="&lt;font size=&quot;1&quot;&gt;&lt;b style=&quot;font-size: 16px&quot;&gt;Site&lt;/b&gt;&lt;/font&gt;" style="outlineConnect=0;fontColor=#232F3E;gradientColor=#60A337;gradientDirection=north;fillColor=#277116;strokeColor=#ffffff;dashed=0;verticalLabelPosition=bottom;verticalAlign=top;align=center;html=1;fontSize=12;fontStyle=0;aspect=fixed;shape=mxgraph.aws4.resourceIcon;resIcon=mxgraph.aws4.s3;" vertex="1" parent="1">
          <mxGeometry x="190" y="356" width="78" height="78" as="geometry" />
        </mxCell>
        <mxCell id="dfPUZloqLpA2gvZXS7nK-40" style="edgeStyle=none;rounded=0;orthogonalLoop=1;jettySize=auto;html=1;fillColor=#ffffff;strokeWidth=2;dashed=1;startArrow=classic;startFill=1;" edge="1" parent="1" source="dfPUZloqLpA2gvZXS7nK-37" target="dfPUZloqLpA2gvZXS7nK-6">
          <mxGeometry relative="1" as="geometry" />
        </mxCell>
        <mxCell id="dfPUZloqLpA2gvZXS7nK-43" style="edgeStyle=none;rounded=0;orthogonalLoop=1;jettySize=auto;html=1;exitX=1;exitY=0;exitDx=0;exitDy=0;strokeWidth=2;fillColor=#ffffff;dashed=1;" edge="1" parent="1" source="dfPUZloqLpA2gvZXS7nK-37" target="dfPUZloqLpA2gvZXS7nK-8">
          <mxGeometry relative="1" as="geometry" />
        </mxCell>
        <mxCell id="dfPUZloqLpA2gvZXS7nK-46" style="edgeStyle=none;rounded=0;orthogonalLoop=1;jettySize=auto;html=1;exitX=1;exitY=1;exitDx=0;exitDy=0;strokeWidth=2;fillColor=#ffffff;dashed=1;" edge="1" parent="1" source="dfPUZloqLpA2gvZXS7nK-37" target="dfPUZloqLpA2gvZXS7nK-17">
          <mxGeometry relative="1" as="geometry" />
        </mxCell>
        <mxCell id="dfPUZloqLpA2gvZXS7nK-37" value="&lt;meta charset=&quot;utf-8&quot;&gt;&lt;b style=&quot;font-weight: normal&quot; id=&quot;docs-internal-guid-421b530e-7fff-cde0-6cca-3f5e1e29d2d5&quot;&gt;&lt;img width=&quot;47px;&quot; height=&quot;55px;&quot; src=&quot;https://lh4.googleusercontent.com/tvmqB__UPYuJahcZz8WOQu2xqAxCZNnLQ0xY1hifK5jnrg3n_OwfJ7X1rwiA2KJIQf62N2FhIiJ9wyUvwSFUxv8utiE9OXPXwjswXbWBUdjzIkvjspDWYYEUX40mnLzsK0dblsr7vd8&quot;&gt;&lt;/b&gt;" style="text;whiteSpace=wrap;html=1;" vertex="1" parent="1">
          <mxGeometry x="510" y="280" width="50" height="50" as="geometry" />
        </mxCell>
        <mxCell id="dfPUZloqLpA2gvZXS7nK-41" style="edgeStyle=none;rounded=0;orthogonalLoop=1;jettySize=auto;html=1;fillColor=#ffffff;strokeWidth=2;startArrow=classic;startFill=1;" edge="1" parent="1" source="dfPUZloqLpA2gvZXS7nK-38" target="dfPUZloqLpA2gvZXS7nK-6">
          <mxGeometry relative="1" as="geometry" />
        </mxCell>
        <mxCell id="dfPUZloqLpA2gvZXS7nK-44" style="edgeStyle=none;rounded=0;orthogonalLoop=1;jettySize=auto;html=1;exitX=1;exitY=0;exitDx=0;exitDy=0;strokeWidth=2;fillColor=#ffffff;" edge="1" parent="1" source="dfPUZloqLpA2gvZXS7nK-38" target="dfPUZloqLpA2gvZXS7nK-8">
          <mxGeometry relative="1" as="geometry" />
        </mxCell>
        <mxCell id="dfPUZloqLpA2gvZXS7nK-47" style="edgeStyle=none;rounded=0;orthogonalLoop=1;jettySize=auto;html=1;exitX=1;exitY=1;exitDx=0;exitDy=0;strokeWidth=2;fillColor=#ffffff;" edge="1" parent="1" source="dfPUZloqLpA2gvZXS7nK-38" target="dfPUZloqLpA2gvZXS7nK-17">
          <mxGeometry relative="1" as="geometry" />
        </mxCell>
        <mxCell id="dfPUZloqLpA2gvZXS7nK-38" value="&lt;meta charset=&quot;utf-8&quot;&gt;&lt;b style=&quot;font-weight: normal&quot; id=&quot;docs-internal-guid-421b530e-7fff-cde0-6cca-3f5e1e29d2d5&quot;&gt;&lt;img width=&quot;47px;&quot; height=&quot;55px;&quot; src=&quot;https://lh4.googleusercontent.com/tvmqB__UPYuJahcZz8WOQu2xqAxCZNnLQ0xY1hifK5jnrg3n_OwfJ7X1rwiA2KJIQf62N2FhIiJ9wyUvwSFUxv8utiE9OXPXwjswXbWBUdjzIkvjspDWYYEUX40mnLzsK0dblsr7vd8&quot;&gt;&lt;/b&gt;" style="text;whiteSpace=wrap;html=1;" vertex="1" parent="1">
          <mxGeometry x="510" y="370" width="50" height="50" as="geometry" />
        </mxCell>
        <mxCell id="dfPUZloqLpA2gvZXS7nK-42" style="edgeStyle=none;rounded=0;orthogonalLoop=1;jettySize=auto;html=1;fillColor=#ffffff;strokeWidth=2;dashed=1;startArrow=classic;startFill=1;" edge="1" parent="1" source="dfPUZloqLpA2gvZXS7nK-39" target="dfPUZloqLpA2gvZXS7nK-6">
          <mxGeometry relative="1" as="geometry" />
        </mxCell>
        <mxCell id="dfPUZloqLpA2gvZXS7nK-45" style="edgeStyle=none;rounded=0;orthogonalLoop=1;jettySize=auto;html=1;exitX=1;exitY=0;exitDx=0;exitDy=0;strokeWidth=2;fillColor=#ffffff;dashed=1;" edge="1" parent="1" source="dfPUZloqLpA2gvZXS7nK-39" target="dfPUZloqLpA2gvZXS7nK-8">
          <mxGeometry relative="1" as="geometry" />
        </mxCell>
        <mxCell id="dfPUZloqLpA2gvZXS7nK-48" style="edgeStyle=none;rounded=0;orthogonalLoop=1;jettySize=auto;html=1;exitX=1;exitY=1;exitDx=0;exitDy=0;strokeWidth=2;fillColor=#ffffff;dashed=1;" edge="1" parent="1" source="dfPUZloqLpA2gvZXS7nK-39" target="dfPUZloqLpA2gvZXS7nK-17">
          <mxGeometry relative="1" as="geometry" />
        </mxCell>
        <mxCell id="dfPUZloqLpA2gvZXS7nK-39" value="&lt;meta charset=&quot;utf-8&quot;&gt;&lt;b style=&quot;font-weight: normal&quot; id=&quot;docs-internal-guid-421b530e-7fff-cde0-6cca-3f5e1e29d2d5&quot;&gt;&lt;img width=&quot;47px;&quot; height=&quot;55px;&quot; src=&quot;https://lh4.googleusercontent.com/tvmqB__UPYuJahcZz8WOQu2xqAxCZNnLQ0xY1hifK5jnrg3n_OwfJ7X1rwiA2KJIQf62N2FhIiJ9wyUvwSFUxv8utiE9OXPXwjswXbWBUdjzIkvjspDWYYEUX40mnLzsK0dblsr7vd8&quot;&gt;&lt;/b&gt;" style="text;whiteSpace=wrap;html=1;" vertex="1" parent="1">
          <mxGeometry x="510" y="460" width="50" height="50" as="geometry" />
        </mxCell>
        <mxCell id="dfPUZloqLpA2gvZXS7nK-52" value="&lt;meta charset=&quot;utf-8&quot;&gt;&lt;b style=&quot;font-weight: normal&quot; id=&quot;docs-internal-guid-071f9e54-7fff-401b-cad2-c8c39cb4ba35&quot;&gt;&lt;img width=&quot;110px;&quot; height=&quot;110px;&quot; src=&quot;https://lh4.googleusercontent.com/VkgenTb9B1-tipeHh8fvyqm1BWnyjn0xKokHodqRazj-50df8DPsP3TNRjDm0qxZwFmr3I94Y9c_qwY2X6VMqD_99PUfddSrm4r_h-BkrmjviwnfMpm3AeNTtE69tK3UPZD9EzAfKtA&quot;&gt;&lt;/b&gt;" style="text;whiteSpace=wrap;html=1;" vertex="1" parent="1">
          <mxGeometry x="959" y="119" width="110" height="121" as="geometry" />
        </mxCell>
        <mxCell id="dfPUZloqLpA2gvZXS7nK-58" value="&lt;meta charset=&quot;utf-8&quot;&gt;&lt;b style=&quot;font-weight: normal&quot; id=&quot;docs-internal-guid-421b530e-7fff-cde0-6cca-3f5e1e29d2d5&quot;&gt;&lt;img width=&quot;47px;&quot; height=&quot;55px;&quot; src=&quot;https://lh4.googleusercontent.com/tvmqB__UPYuJahcZz8WOQu2xqAxCZNnLQ0xY1hifK5jnrg3n_OwfJ7X1rwiA2KJIQf62N2FhIiJ9wyUvwSFUxv8utiE9OXPXwjswXbWBUdjzIkvjspDWYYEUX40mnLzsK0dblsr7vd8&quot;&gt;&lt;/b&gt;" style="text;whiteSpace=wrap;html=1;" vertex="1" parent="1">
          <mxGeometry x="804.5" y="579.5" width="50" height="50" as="geometry" />
        </mxCell>
      </root>
    </mxGraphModel>
  </diagram>
</mxfile>
